<mxfile host="app.diagrams.net" agent="Mozilla/5.0 (Windows NT 10.0; Win64; x64) AppleWebKit/537.36 (KHTML, like Gecko) Chrome/135.0.0.0 Safari/537.36" version="26.2.14">
  <diagram name="Page-1" id="NpnzWu4H0YKWlNkp5FyW">
    <mxGraphModel dx="1667" dy="1062" grid="1" gridSize="10" guides="1" tooltips="1" connect="1" arrows="1" fold="1" page="1" pageScale="1" pageWidth="850" pageHeight="1100" math="0" shadow="0">
      <root>
        <mxCell id="0" />
        <mxCell id="1" parent="0" />
        <mxCell id="fO4NlbeWXBoD87Kmhq8f-1" value="Outlet" style="swimlane;whiteSpace=wrap;html=1;fillColor=#1ba1e2;fontColor=#ffffff;strokeColor=#006EAF;" vertex="1" parent="1">
          <mxGeometry x="40" y="80" width="200" height="200" as="geometry" />
        </mxCell>
        <mxCell id="fO4NlbeWXBoD87Kmhq8f-3" value="Address" style="text;html=1;align=center;verticalAlign=middle;resizable=0;points=[];autosize=1;strokeColor=none;fillColor=none;" vertex="1" parent="fO4NlbeWXBoD87Kmhq8f-1">
          <mxGeometry y="70" width="70" height="30" as="geometry" />
        </mxCell>
        <mxCell id="fO4NlbeWXBoD87Kmhq8f-6" value="Phone number" style="text;html=1;align=center;verticalAlign=middle;resizable=0;points=[];autosize=1;strokeColor=none;fillColor=none;" vertex="1" parent="fO4NlbeWXBoD87Kmhq8f-1">
          <mxGeometry y="100" width="100" height="30" as="geometry" />
        </mxCell>
        <mxCell id="fO4NlbeWXBoD87Kmhq8f-7" value="Fax number" style="text;html=1;align=center;verticalAlign=middle;resizable=0;points=[];autosize=1;strokeColor=none;fillColor=none;" vertex="1" parent="fO4NlbeWXBoD87Kmhq8f-1">
          <mxGeometry y="130" width="90" height="30" as="geometry" />
        </mxCell>
        <mxCell id="fO4NlbeWXBoD87Kmhq8f-2" value="Number" style="text;html=1;align=center;verticalAlign=middle;resizable=0;points=[];autosize=1;strokeColor=none;fillColor=none;" vertex="1" parent="fO4NlbeWXBoD87Kmhq8f-1">
          <mxGeometry y="50" width="70" height="30" as="geometry" />
        </mxCell>
        <mxCell id="fO4NlbeWXBoD87Kmhq8f-17" value="Vehicle for hire" style="swimlane;whiteSpace=wrap;html=1;fillColor=#1ba1e2;fontColor=#ffffff;strokeColor=#006EAF;" vertex="1" parent="1">
          <mxGeometry x="40" y="720" width="200" height="270" as="geometry" />
        </mxCell>
        <mxCell id="fO4NlbeWXBoD87Kmhq8f-18" value="Registration number" style="text;html=1;align=center;verticalAlign=middle;resizable=0;points=[];autosize=1;strokeColor=none;fillColor=none;" vertex="1" parent="fO4NlbeWXBoD87Kmhq8f-17">
          <mxGeometry y="30" width="130" height="30" as="geometry" />
        </mxCell>
        <mxCell id="fO4NlbeWXBoD87Kmhq8f-20" value="make" style="text;html=1;align=center;verticalAlign=middle;resizable=0;points=[];autosize=1;strokeColor=none;fillColor=none;" vertex="1" parent="fO4NlbeWXBoD87Kmhq8f-17">
          <mxGeometry y="85" width="50" height="30" as="geometry" />
        </mxCell>
        <mxCell id="fO4NlbeWXBoD87Kmhq8f-21" value="engine size" style="text;html=1;align=center;verticalAlign=middle;resizable=0;points=[];autosize=1;strokeColor=none;fillColor=none;" vertex="1" parent="fO4NlbeWXBoD87Kmhq8f-17">
          <mxGeometry y="110" width="80" height="30" as="geometry" />
        </mxCell>
        <mxCell id="fO4NlbeWXBoD87Kmhq8f-19" value="model" style="text;html=1;align=center;verticalAlign=middle;resizable=0;points=[];autosize=1;strokeColor=none;fillColor=none;" vertex="1" parent="fO4NlbeWXBoD87Kmhq8f-17">
          <mxGeometry x="-5" y="58" width="60" height="30" as="geometry" />
        </mxCell>
        <mxCell id="fO4NlbeWXBoD87Kmhq8f-22" value="capacity" style="text;html=1;align=center;verticalAlign=middle;resizable=0;points=[];autosize=1;strokeColor=none;fillColor=none;" vertex="1" parent="fO4NlbeWXBoD87Kmhq8f-17">
          <mxGeometry y="140" width="70" height="30" as="geometry" />
        </mxCell>
        <mxCell id="fO4NlbeWXBoD87Kmhq8f-24" value="current mileage" style="text;html=1;align=center;verticalAlign=middle;resizable=0;points=[];autosize=1;strokeColor=none;fillColor=none;" vertex="1" parent="fO4NlbeWXBoD87Kmhq8f-17">
          <mxGeometry y="168" width="110" height="30" as="geometry" />
        </mxCell>
        <mxCell id="fO4NlbeWXBoD87Kmhq8f-25" value="daily hire rate" style="text;html=1;align=center;verticalAlign=middle;resizable=0;points=[];autosize=1;strokeColor=none;fillColor=none;" vertex="1" parent="fO4NlbeWXBoD87Kmhq8f-17">
          <mxGeometry y="198" width="100" height="30" as="geometry" />
        </mxCell>
        <mxCell id="fO4NlbeWXBoD87Kmhq8f-26" value="outlet" style="text;html=1;align=center;verticalAlign=middle;resizable=0;points=[];autosize=1;strokeColor=none;fillColor=none;" vertex="1" parent="fO4NlbeWXBoD87Kmhq8f-17">
          <mxGeometry x="5" y="228" width="50" height="30" as="geometry" />
        </mxCell>
        <mxCell id="fO4NlbeWXBoD87Kmhq8f-47" value="Fault report" style="swimlane;childLayout=stackLayout;horizontal=1;startSize=50;horizontalStack=0;rounded=1;fontSize=14;fontStyle=0;strokeWidth=2;resizeParent=0;resizeLast=1;shadow=0;dashed=0;align=center;arcSize=4;whiteSpace=wrap;html=1;fillColor=#008a00;fontColor=#ffffff;strokeColor=#005700;" vertex="1" parent="1">
          <mxGeometry x="520" y="400" width="160" height="170" as="geometry" />
        </mxCell>
        <mxCell id="fO4NlbeWXBoD87Kmhq8f-48" value="Staff_checks_Name&lt;div&gt;Date_check&lt;/div&gt;&lt;div&gt;Faults&lt;/div&gt;&lt;div&gt;Registration_Number&lt;/div&gt;&lt;div&gt;Model&lt;/div&gt;&lt;div&gt;Milage&lt;br&gt;&lt;br&gt;&lt;div&gt;&lt;br&gt;&lt;/div&gt;&lt;/div&gt;" style="align=left;strokeColor=none;fillColor=none;spacingLeft=4;spacingRight=4;fontSize=12;verticalAlign=top;resizable=0;rotatable=0;part=1;html=1;whiteSpace=wrap;" vertex="1" parent="fO4NlbeWXBoD87Kmhq8f-47">
          <mxGeometry y="50" width="160" height="120" as="geometry" />
        </mxCell>
        <mxCell id="fO4NlbeWXBoD87Kmhq8f-49" value="Staff" style="swimlane;childLayout=stackLayout;horizontal=1;startSize=50;horizontalStack=0;rounded=1;fontSize=14;fontStyle=0;strokeWidth=2;resizeParent=0;resizeLast=1;shadow=0;dashed=0;align=center;arcSize=4;whiteSpace=wrap;html=1;fillColor=#008a00;fontColor=#ffffff;strokeColor=#005700;" vertex="1" parent="1">
          <mxGeometry x="520" y="80" width="160" height="210" as="geometry" />
        </mxCell>
        <mxCell id="fO4NlbeWXBoD87Kmhq8f-50" value="&lt;div&gt;&lt;div&gt;Staff_number&lt;/div&gt;&lt;/div&gt;&lt;div&gt;First name&lt;/div&gt;&lt;div&gt;Last name&lt;/div&gt;&lt;div&gt;Home address&lt;/div&gt;&lt;div&gt;Home phone No.&lt;/div&gt;&lt;div&gt;DoB&lt;/div&gt;&lt;div&gt;Gender&lt;/div&gt;&lt;div&gt;Date_of_Join&lt;/div&gt;&lt;div&gt;Job title&lt;/div&gt;&lt;div&gt;Salary&lt;/div&gt;" style="align=left;strokeColor=none;fillColor=none;spacingLeft=4;spacingRight=4;fontSize=12;verticalAlign=top;resizable=0;rotatable=0;part=1;html=1;whiteSpace=wrap;" vertex="1" parent="fO4NlbeWXBoD87Kmhq8f-49">
          <mxGeometry y="50" width="160" height="160" as="geometry" />
        </mxCell>
        <mxCell id="fO4NlbeWXBoD87Kmhq8f-51" value="" style="endArrow=none;html=1;rounded=0;exitX=0.5;exitY=1;exitDx=0;exitDy=0;entryX=0.5;entryY=0;entryDx=0;entryDy=0;" edge="1" parent="1" source="fO4NlbeWXBoD87Kmhq8f-50" target="fO4NlbeWXBoD87Kmhq8f-47">
          <mxGeometry relative="1" as="geometry">
            <mxPoint x="130" y="530" as="sourcePoint" />
            <mxPoint x="290" y="530" as="targetPoint" />
          </mxGeometry>
        </mxCell>
        <mxCell id="fO4NlbeWXBoD87Kmhq8f-52" value="" style="shape=mxgraph.arrows2.wedgeArrow;html=1;bendable=0;startWidth=11.627906976744189;fillColor=strokeColor;defaultFillColor=invert;defaultGradientColor=invert;rounded=0;" edge="1" parent="1">
          <mxGeometry width="100" height="100" relative="1" as="geometry">
            <mxPoint x="570" y="335" as="sourcePoint" />
            <mxPoint x="570" y="355" as="targetPoint" />
          </mxGeometry>
        </mxCell>
        <mxCell id="fO4NlbeWXBoD87Kmhq8f-53" value="Create" style="text;html=1;align=center;verticalAlign=middle;whiteSpace=wrap;rounded=0;" vertex="1" parent="1">
          <mxGeometry x="510" y="330" width="60" height="30" as="geometry" />
        </mxCell>
        <mxCell id="fO4NlbeWXBoD87Kmhq8f-54" value="0..1" style="text;html=1;align=center;verticalAlign=middle;whiteSpace=wrap;rounded=0;" vertex="1" parent="1">
          <mxGeometry x="460" y="728" width="60" height="30" as="geometry" />
        </mxCell>
        <mxCell id="fO4NlbeWXBoD87Kmhq8f-71" value="Client" style="swimlane;childLayout=stackLayout;horizontal=1;startSize=50;horizontalStack=0;rounded=1;fontSize=14;fontStyle=0;strokeWidth=2;resizeParent=0;resizeLast=1;shadow=0;dashed=0;align=center;arcSize=4;whiteSpace=wrap;html=1;fillColor=#008a00;fontColor=#ffffff;strokeColor=#005700;" vertex="1" parent="1">
          <mxGeometry x="520" y="720" width="160" height="170" as="geometry" />
        </mxCell>
        <mxCell id="fO4NlbeWXBoD87Kmhq8f-72" value="&lt;div&gt;&lt;div&gt;&lt;span style=&quot;background-color: transparent; color: light-dark(rgb(0, 0, 0), rgb(255, 255, 255));&quot;&gt;Client Number. {PK}&lt;/span&gt;&lt;/div&gt;&lt;/div&gt;&lt;div&gt;First Name.&lt;/div&gt;&lt;div&gt;Last Name.&lt;/div&gt;&lt;div&gt;Home_address&lt;/div&gt;&lt;div&gt;Phone_number&lt;/div&gt;&lt;div&gt;DoB&lt;/div&gt;&lt;div&gt;&lt;div&gt;Driving Licence No.&lt;/div&gt;&lt;/div&gt;&lt;div&gt;&lt;br&gt;&lt;/div&gt;" style="align=left;strokeColor=none;fillColor=none;spacingLeft=4;spacingRight=4;fontSize=12;verticalAlign=top;resizable=0;rotatable=0;part=1;html=1;whiteSpace=wrap;" vertex="1" parent="fO4NlbeWXBoD87Kmhq8f-71">
          <mxGeometry y="50" width="160" height="120" as="geometry" />
        </mxCell>
        <mxCell id="fO4NlbeWXBoD87Kmhq8f-73" value="Hire Agreement" style="swimlane;childLayout=stackLayout;horizontal=1;startSize=50;horizontalStack=0;rounded=1;fontSize=14;fontStyle=0;strokeWidth=2;resizeParent=0;resizeLast=1;shadow=0;dashed=0;align=center;arcSize=4;whiteSpace=wrap;html=1;fillColor=#008a00;fontColor=#ffffff;strokeColor=#005700;" vertex="1" parent="1">
          <mxGeometry x="310" y="860" width="160" height="220" as="geometry" />
        </mxCell>
        <mxCell id="fO4NlbeWXBoD87Kmhq8f-74" value="&lt;div&gt;&lt;div&gt;Hire no {PK}&lt;/div&gt;&lt;/div&gt;&lt;div&gt;Client no.&lt;/div&gt;&lt;div&gt;Name&lt;/div&gt;&lt;div&gt;Address&lt;/div&gt;&lt;div&gt;Phone no.&lt;/div&gt;&lt;div&gt;Date of hire&lt;/div&gt;&lt;div&gt;Termination date [1..365]&lt;/div&gt;&lt;div&gt;Vehicle reg no.&lt;/div&gt;&lt;div&gt;model + make&lt;/div&gt;&lt;div&gt;mileage before&lt;/div&gt;&lt;div&gt;mileage after&lt;/div&gt;&lt;div&gt;&lt;br&gt;&lt;/div&gt;" style="align=left;strokeColor=none;fillColor=none;spacingLeft=4;spacingRight=4;fontSize=12;verticalAlign=top;resizable=0;rotatable=0;part=1;html=1;whiteSpace=wrap;" vertex="1" parent="fO4NlbeWXBoD87Kmhq8f-73">
          <mxGeometry y="50" width="160" height="170" as="geometry" />
        </mxCell>
        <mxCell id="fO4NlbeWXBoD87Kmhq8f-77" value="" style="endArrow=none;html=1;rounded=0;entryX=0;entryY=0;entryDx=0;entryDy=0;" edge="1" parent="1" target="fO4NlbeWXBoD87Kmhq8f-72">
          <mxGeometry width="50" height="50" relative="1" as="geometry">
            <mxPoint x="240" y="770" as="sourcePoint" />
            <mxPoint x="430" y="670" as="targetPoint" />
          </mxGeometry>
        </mxCell>
        <mxCell id="fO4NlbeWXBoD87Kmhq8f-78" value="hires vehicle" style="text;html=1;align=center;verticalAlign=middle;resizable=0;points=[];autosize=1;strokeColor=none;fillColor=none;" vertex="1" parent="1">
          <mxGeometry x="345" y="728" width="90" height="30" as="geometry" />
        </mxCell>
        <mxCell id="fO4NlbeWXBoD87Kmhq8f-80" value="1..*" style="text;html=1;align=center;verticalAlign=middle;whiteSpace=wrap;rounded=0;" vertex="1" parent="1">
          <mxGeometry x="240" y="728" width="60" height="30" as="geometry" />
        </mxCell>
        <mxCell id="fO4NlbeWXBoD87Kmhq8f-81" value="" style="shape=mxgraph.arrows2.wedgeArrow;html=1;bendable=0;startWidth=11.627906976744189;fillColor=strokeColor;defaultFillColor=invert;defaultGradientColor=invert;rounded=0;" edge="1" parent="1">
          <mxGeometry width="100" height="100" relative="1" as="geometry">
            <mxPoint x="350.8695652173915" y="742.82" as="sourcePoint" />
            <mxPoint x="330" y="742.82" as="targetPoint" />
          </mxGeometry>
        </mxCell>
        <mxCell id="fO4NlbeWXBoD87Kmhq8f-83" value="" style="endArrow=none;dashed=1;html=1;rounded=0;exitX=0.5;exitY=0;exitDx=0;exitDy=0;" edge="1" parent="1" source="fO4NlbeWXBoD87Kmhq8f-73">
          <mxGeometry width="50" height="50" relative="1" as="geometry">
            <mxPoint x="410" y="750" as="sourcePoint" />
            <mxPoint x="390" y="770" as="targetPoint" />
          </mxGeometry>
        </mxCell>
        <mxCell id="fO4NlbeWXBoD87Kmhq8f-84" value="" style="endArrow=none;html=1;rounded=0;entryX=0.5;entryY=1;entryDx=0;entryDy=0;exitX=0.5;exitY=0;exitDx=0;exitDy=0;" edge="1" parent="1" source="fO4NlbeWXBoD87Kmhq8f-17" target="fO4NlbeWXBoD87Kmhq8f-1">
          <mxGeometry width="50" height="50" relative="1" as="geometry">
            <mxPoint x="110" y="510" as="sourcePoint" />
            <mxPoint x="160" y="460" as="targetPoint" />
          </mxGeometry>
        </mxCell>
        <mxCell id="fO4NlbeWXBoD87Kmhq8f-85" value="has" style="text;html=1;align=center;verticalAlign=middle;resizable=0;points=[];autosize=1;strokeColor=none;fillColor=none;" vertex="1" parent="1">
          <mxGeometry x="80" y="470" width="40" height="30" as="geometry" />
        </mxCell>
        <mxCell id="fO4NlbeWXBoD87Kmhq8f-86" value="1..*" style="text;html=1;align=center;verticalAlign=middle;whiteSpace=wrap;rounded=0;" vertex="1" parent="1">
          <mxGeometry x="80" y="690" width="60" height="30" as="geometry" />
        </mxCell>
        <mxCell id="fO4NlbeWXBoD87Kmhq8f-87" value="1..1" style="text;html=1;align=center;verticalAlign=middle;whiteSpace=wrap;rounded=0;" vertex="1" parent="1">
          <mxGeometry x="80" y="290" width="60" height="30" as="geometry" />
        </mxCell>
        <mxCell id="fO4NlbeWXBoD87Kmhq8f-88" value="" style="endArrow=none;html=1;rounded=0;entryX=-0.013;entryY=0.196;entryDx=0;entryDy=0;entryPerimeter=0;" edge="1" parent="1" target="fO4NlbeWXBoD87Kmhq8f-49">
          <mxGeometry width="50" height="50" relative="1" as="geometry">
            <mxPoint x="240" y="121" as="sourcePoint" />
            <mxPoint x="430" y="330" as="targetPoint" />
          </mxGeometry>
        </mxCell>
        <mxCell id="fO4NlbeWXBoD87Kmhq8f-89" value="" style="endArrow=none;html=1;rounded=0;exitX=0.01;exitY=0.372;exitDx=0;exitDy=0;exitPerimeter=0;" edge="1" parent="1" source="fO4NlbeWXBoD87Kmhq8f-50">
          <mxGeometry width="50" height="50" relative="1" as="geometry">
            <mxPoint x="290" y="250" as="sourcePoint" />
            <mxPoint x="240" y="190" as="targetPoint" />
          </mxGeometry>
        </mxCell>
        <mxCell id="fO4NlbeWXBoD87Kmhq8f-90" value="" style="shape=mxgraph.arrows2.wedgeArrow;html=1;bendable=0;startWidth=11.627906976744189;fillColor=strokeColor;defaultFillColor=invert;defaultGradientColor=invert;rounded=0;" edge="1" parent="1">
          <mxGeometry width="100" height="100" relative="1" as="geometry">
            <mxPoint x="100.43956521739148" y="500" as="sourcePoint" />
            <mxPoint x="99.57" y="520" as="targetPoint" />
          </mxGeometry>
        </mxCell>
        <mxCell id="fO4NlbeWXBoD87Kmhq8f-91" value="has" style="text;html=1;align=center;verticalAlign=middle;resizable=0;points=[];autosize=1;strokeColor=none;fillColor=none;" vertex="1" parent="1">
          <mxGeometry x="345" y="210" width="40" height="30" as="geometry" />
        </mxCell>
        <mxCell id="fO4NlbeWXBoD87Kmhq8f-92" value="" style="shape=mxgraph.arrows2.wedgeArrow;html=1;bendable=0;startWidth=11.627906976744189;fillColor=strokeColor;defaultFillColor=invert;defaultGradientColor=invert;rounded=0;" edge="1" parent="1">
          <mxGeometry width="100" height="100" relative="1" as="geometry">
            <mxPoint x="385" y="224.75" as="sourcePoint" />
            <mxPoint x="405" y="224.75" as="targetPoint" />
          </mxGeometry>
        </mxCell>
        <mxCell id="fO4NlbeWXBoD87Kmhq8f-93" value="supervises" style="text;html=1;align=center;verticalAlign=middle;resizable=0;points=[];autosize=1;strokeColor=none;fillColor=none;" vertex="1" parent="1">
          <mxGeometry x="345" y="90" width="80" height="30" as="geometry" />
        </mxCell>
        <mxCell id="fO4NlbeWXBoD87Kmhq8f-94" value="" style="shape=mxgraph.arrows2.wedgeArrow;html=1;bendable=0;startWidth=11.627906976744189;fillColor=strokeColor;defaultFillColor=invert;defaultGradientColor=invert;rounded=0;" edge="1" parent="1">
          <mxGeometry width="100" height="100" relative="1" as="geometry">
            <mxPoint x="340" y="104.76" as="sourcePoint" />
            <mxPoint x="320" y="104.76" as="targetPoint" />
          </mxGeometry>
        </mxCell>
        <mxCell id="fO4NlbeWXBoD87Kmhq8f-95" value="1..*" style="text;html=1;align=center;verticalAlign=middle;whiteSpace=wrap;rounded=0;" vertex="1" parent="1">
          <mxGeometry x="435" y="210" width="60" height="30" as="geometry" />
        </mxCell>
        <mxCell id="fO4NlbeWXBoD87Kmhq8f-96" value="1..1" style="text;html=1;align=center;verticalAlign=middle;whiteSpace=wrap;rounded=0;" vertex="1" parent="1">
          <mxGeometry x="250" y="90" width="60" height="30" as="geometry" />
        </mxCell>
        <mxCell id="fO4NlbeWXBoD87Kmhq8f-97" value="1..1" style="text;html=1;align=center;verticalAlign=middle;resizable=0;points=[];autosize=1;strokeColor=none;fillColor=none;" vertex="1" parent="1">
          <mxGeometry x="610" y="300" width="40" height="30" as="geometry" />
        </mxCell>
        <mxCell id="fO4NlbeWXBoD87Kmhq8f-98" value="0..*" style="text;html=1;align=center;verticalAlign=middle;resizable=0;points=[];autosize=1;strokeColor=none;fillColor=none;" vertex="1" parent="1">
          <mxGeometry x="550" y="370" width="40" height="30" as="geometry" />
        </mxCell>
        <mxCell id="fO4NlbeWXBoD87Kmhq8f-99" value="1..1" style="text;html=1;align=center;verticalAlign=middle;resizable=0;points=[];autosize=1;strokeColor=none;fillColor=none;" vertex="1" parent="1">
          <mxGeometry x="250" y="210" width="40" height="30" as="geometry" />
        </mxCell>
        <mxCell id="fO4NlbeWXBoD87Kmhq8f-100" value="1..1" style="text;html=1;align=center;verticalAlign=middle;resizable=0;points=[];autosize=1;strokeColor=none;fillColor=none;" vertex="1" parent="1">
          <mxGeometry x="445" y="90" width="40" height="30" as="geometry" />
        </mxCell>
      </root>
    </mxGraphModel>
  </diagram>
</mxfile>
